# xmcd
#
# Track frame offsets:
#	182
#	16877
#	30805
#	46365
#	63957
#	78860
#	95820
#	110875
#	127130
#	142617
#	158022
#	175550
#
# Disc length: 2561 seconds
#
# Revision: 3
# Processed by: cddbd v1.5PL3 Copyright (c) Steve Scherf et al.
# Submitted via: MusicManager 7.0.4.0 
#
DISCID=8c09ff0c
DTITLE=Don Williams - I Turn The Page
DYEAR=1998
DGENRE=
TTITLE0=Take It Easy On Yourself
TTITLE1=Her Perfect Memory
TTITLE2=Elise
TTITLE3=Ride On
TTITLE4=Something 'Bout You
TTITLE5=Cracker Jack Diamond
TTITLE6=From Now On
TTITLE7=Pancho
TTITLE8=A Handful Of Dust
TTITLE9=Harry And Joe
TTITLE10=How Did You Do It
TTITLE11=I Sing For Joy
EXTD=
EXTT0=
EXTT1=
EXTT2=
EXTT3=
EXTT4=
EXTT5=
EXTT6=
EXTT7=
EXTT8=
EXTT9=
EXTT10=
EXTT11=
PLAYORDER=
